<svg width="100%" height="100%" viewBox="0 0 400 100"  xmlns="http://www.w3.org/2000/svg" xmlns:serif="http://www.serif.com/" >
    <path d="M400,0L0,0L0,100L400,100L400,0ZM195.069,56.242C195.069,57.676 195.314,58.9 195.804,59.914C196.293,60.928 196.975,61.758 197.849,62.405C198.724,63.052 199.729,63.524 200.865,63.821C202.002,64.119 203.235,64.267 204.563,64.267C205.997,64.267 207.221,64.101 208.235,63.769C209.249,63.437 210.071,63.008 210.7,62.484C211.33,61.959 211.784,61.356 212.064,60.674C212.344,59.992 212.484,59.302 212.484,58.602C212.484,57.169 212.16,56.111 211.513,55.429C210.867,54.747 210.158,54.266 209.389,53.986C208.06,53.497 206.513,53.034 204.747,52.596C202.981,52.159 200.804,51.591 198.217,50.892C196.608,50.472 195.27,49.921 194.204,49.239C193.137,48.558 192.289,47.797 191.66,46.958C191.031,46.118 190.585,45.227 190.322,44.283C190.06,43.338 189.929,42.377 189.929,41.398C189.929,39.509 190.322,37.875 191.109,36.493C191.896,35.112 192.936,33.967 194.23,33.058C195.524,32.149 196.993,31.475 198.636,31.038C200.28,30.601 201.941,30.383 203.619,30.383C205.577,30.383 207.422,30.636 209.153,31.143C210.884,31.65 212.405,32.411 213.716,33.425C215.028,34.439 216.068,35.689 216.837,37.175C217.607,38.661 217.991,40.384 217.991,42.342L211.435,42.342C211.26,39.929 210.438,38.224 208.969,37.228C207.501,36.231 205.63,35.733 203.357,35.733C202.588,35.733 201.801,35.811 200.997,35.969C200.192,36.126 199.458,36.388 198.794,36.756C198.129,37.123 197.578,37.621 197.141,38.251C196.704,38.88 196.486,39.667 196.486,40.611C196.486,41.94 196.897,42.98 197.718,43.732C198.54,44.484 199.615,45.052 200.944,45.437C201.084,45.472 201.635,45.62 202.596,45.882C203.558,46.145 204.633,46.433 205.822,46.748C207.011,47.063 208.174,47.369 209.31,47.666C210.447,47.963 211.26,48.182 211.749,48.322C212.973,48.706 214.04,49.231 214.949,49.895C215.858,50.559 216.619,51.32 217.231,52.177C217.843,53.034 218.297,53.951 218.595,54.931C218.892,55.91 219.04,56.889 219.04,57.868C219.04,59.966 218.612,61.758 217.755,63.244C216.899,64.731 215.771,65.946 214.372,66.89C212.973,67.834 211.382,68.525 209.599,68.962C207.815,69.399 205.997,69.617 204.144,69.617C202.011,69.617 200,69.355 198.112,68.831C196.223,68.306 194.58,67.502 193.181,66.418C191.782,65.334 190.663,63.944 189.824,62.248C188.985,60.552 188.548,58.55 188.513,56.242L195.069,56.242ZM106.896,31.274L112.876,31.274L112.876,45.122L112.981,45.122C113.4,44.457 113.907,43.863 114.502,43.338C115.096,42.814 115.752,42.368 116.469,42.001C117.186,41.634 117.937,41.354 118.724,41.162C119.511,40.969 120.289,40.873 121.058,40.873C123.191,40.873 125.053,41.249 126.645,42.001C128.236,42.753 129.556,43.784 130.605,45.096C131.654,46.407 132.441,47.937 132.965,49.685C133.49,51.434 133.752,53.305 133.752,55.298C133.752,57.116 133.516,58.882 133.044,60.595C132.572,62.309 131.855,63.821 130.893,65.133C129.932,66.444 128.716,67.493 127.248,68.28C125.779,69.067 124.048,69.46 122.055,69.46C121.146,69.46 120.228,69.399 119.301,69.276C118.374,69.154 117.492,68.918 116.652,68.568C115.813,68.219 115.052,67.764 114.371,67.205C113.689,66.645 113.12,65.911 112.666,65.002L112.561,65.002L112.561,68.726L106.896,68.726L106.896,31.274ZM76.159,31.274L82.138,31.274L82.138,45.122L82.243,45.122C82.663,44.457 83.17,43.863 83.764,43.338C84.359,42.814 85.014,42.368 85.731,42.001C86.448,41.634 87.2,41.354 87.987,41.162C88.774,40.969 89.552,40.873 90.321,40.873C92.454,40.873 94.316,41.249 95.907,42.001C97.498,42.753 98.818,43.784 99.867,45.096C100.916,46.407 101.703,47.937 102.228,49.685C102.752,51.434 103.014,53.305 103.014,55.298C103.014,57.116 102.778,58.882 102.306,60.595C101.834,62.309 101.117,63.821 100.156,65.133C99.194,66.444 97.979,67.493 96.51,68.28C95.042,69.067 93.311,69.46 91.317,69.46C90.408,69.46 89.49,69.399 88.564,69.276C87.637,69.154 86.754,68.918 85.915,68.568C85.076,68.219 84.315,67.764 83.633,67.205C82.951,66.645 82.383,65.911 81.928,65.002L81.823,65.002L81.823,68.726L76.159,68.726L76.159,31.274ZM153.474,56.714C153.474,57.763 153.623,58.777 153.92,59.756C154.217,60.735 154.663,61.592 155.258,62.326C155.852,63.061 156.604,63.647 157.513,64.084C158.422,64.521 159.506,64.739 160.765,64.739C162.514,64.739 163.921,64.363 164.988,63.612C166.054,62.86 166.85,61.732 167.374,60.228L173.039,60.228C172.724,61.697 172.182,63.008 171.413,64.162C170.644,65.316 169.717,66.287 168.633,67.073C167.549,67.86 166.334,68.455 164.988,68.857C163.641,69.259 162.234,69.46 160.765,69.46C158.632,69.46 156.744,69.11 155.1,68.411C153.457,67.712 152.067,66.732 150.93,65.474C149.794,64.215 148.937,62.711 148.36,60.963C147.783,59.214 147.495,57.291 147.495,55.193C147.495,53.27 147.801,51.442 148.413,49.712C149.024,47.981 149.899,46.459 151.035,45.148C152.172,43.837 153.544,42.796 155.153,42.027C156.761,41.258 158.58,40.873 160.608,40.873C162.741,40.873 164.655,41.319 166.351,42.211C168.047,43.102 169.455,44.283 170.574,45.751C171.693,47.22 172.506,48.907 173.013,50.813C173.52,52.719 173.651,54.686 173.406,56.714L153.474,56.714ZM283.925,56.714C283.925,57.763 284.073,58.777 284.371,59.756C284.668,60.735 285.114,61.592 285.708,62.326C286.303,63.061 287.054,63.647 287.964,64.084C288.873,64.521 289.957,64.739 291.216,64.739C292.964,64.739 294.372,64.363 295.438,63.612C296.505,62.86 297.3,61.732 297.825,60.228L303.49,60.228C303.175,61.697 302.633,63.008 301.864,64.162C301.094,65.316 300.168,66.287 299.084,67.073C298,67.86 296.784,68.455 295.438,68.857C294.092,69.259 292.684,69.46 291.216,69.46C289.083,69.46 287.194,69.11 285.551,68.411C283.907,67.712 282.517,66.732 281.381,65.474C280.244,64.215 279.388,62.711 278.811,60.963C278.234,59.214 277.945,57.291 277.945,55.193C277.945,53.27 278.251,51.442 278.863,49.712C279.475,47.981 280.349,46.459 281.486,45.148C282.622,43.837 283.995,42.796 285.603,42.027C287.212,41.258 289.03,40.873 291.058,40.873C293.191,40.873 295.106,41.319 296.802,42.211C298.498,43.102 299.905,44.283 301.024,45.751C302.143,47.22 302.956,48.907 303.463,50.813C303.97,52.719 304.102,54.686 303.857,56.714L283.925,56.714ZM240.913,50.682C240.669,49.003 239.995,47.736 238.894,46.879C237.792,46.022 236.402,45.594 234.724,45.594C233.955,45.594 233.133,45.725 232.259,45.987C231.384,46.25 230.58,46.739 229.846,47.456C229.111,48.173 228.499,49.169 228.01,50.446C227.52,51.722 227.276,53.392 227.276,55.455C227.276,56.574 227.407,57.693 227.669,58.812C227.931,59.931 228.351,60.928 228.928,61.802C229.505,62.676 230.248,63.384 231.157,63.926C232.066,64.468 233.168,64.739 234.462,64.739C236.21,64.739 237.652,64.197 238.789,63.113C239.925,62.029 240.634,60.508 240.913,58.55L246.893,58.55C246.333,62.082 244.996,64.783 242.88,66.654C240.765,68.525 237.958,69.46 234.462,69.46C232.329,69.46 230.449,69.102 228.823,68.385C227.197,67.668 225.824,66.689 224.705,65.447C223.586,64.206 222.738,62.729 222.161,61.015C221.584,59.302 221.296,57.448 221.296,55.455C221.296,53.427 221.576,51.521 222.135,49.738C222.695,47.954 223.534,46.407 224.653,45.096C225.772,43.784 227.162,42.753 228.823,42.001C230.484,41.249 232.433,40.873 234.671,40.873C236.245,40.873 237.74,41.074 239.156,41.476C240.572,41.879 241.831,42.482 242.933,43.286C244.034,44.09 244.935,45.104 245.634,46.328C246.333,47.552 246.753,49.003 246.893,50.682L240.913,50.682ZM250.46,31.274L256.439,31.274L256.439,45.174L256.544,45.174C257.279,43.95 258.371,42.928 259.823,42.106C261.274,41.284 262.891,40.873 264.674,40.873C267.647,40.873 269.99,41.642 271.703,43.181C273.417,44.72 274.273,47.028 274.273,50.105L274.273,68.726L268.294,68.726L268.294,51.678C268.224,49.545 267.769,47.998 266.93,47.036C266.091,46.075 264.779,45.594 262.996,45.594C261.982,45.594 261.073,45.778 260.268,46.145C259.464,46.512 258.782,47.019 258.223,47.666C257.663,48.313 257.226,49.073 256.911,49.948C256.597,50.822 256.439,51.748 256.439,52.728L256.439,68.726L250.46,68.726L250.46,31.274ZM307.109,41.608L312.774,41.608L312.774,45.594L312.879,45.699C313.788,44.195 314.977,43.015 316.446,42.158C317.914,41.302 319.54,40.873 321.324,40.873C324.296,40.873 326.639,41.642 328.352,43.181C330.066,44.72 330.923,47.028 330.923,50.105L330.923,68.726L324.943,68.726L324.943,51.678C324.873,49.545 324.418,47.998 323.579,47.036C322.74,46.075 321.429,45.594 319.645,45.594C318.631,45.594 317.722,45.778 316.918,46.145C316.113,46.512 315.431,47.019 314.872,47.666C314.312,48.313 313.875,49.073 313.561,49.948C313.246,50.822 313.089,51.748 313.089,52.728L313.089,68.726L307.109,68.726L307.109,41.608ZM336.063,31.274L342.043,31.274L342.043,52.57L352.848,41.608L360.191,41.608L349.806,51.574L361.188,68.726L353.897,68.726L345.609,55.56L342.043,59.022L342.043,68.726L336.063,68.726L336.063,31.274ZM137.633,41.608L143.613,41.608L143.613,68.726L137.633,68.726L137.633,41.608ZM53.184,31.274L60.16,31.274L74.585,68.726L67.556,68.726L64.042,58.812L49.093,58.812L45.579,68.726L38.812,68.726L53.184,31.274ZM97.035,55.193C97.035,53.969 96.877,52.78 96.563,51.626C96.248,50.472 95.776,49.449 95.147,48.558C94.517,47.666 93.73,46.949 92.786,46.407C91.842,45.865 90.758,45.594 89.534,45.594C87.016,45.594 85.119,46.468 83.843,48.217C82.567,49.965 81.928,52.29 81.928,55.193C81.928,56.557 82.095,57.824 82.427,58.996C82.759,60.167 83.257,61.172 83.922,62.012C84.586,62.851 85.382,63.515 86.308,64.005C87.235,64.494 88.31,64.739 89.534,64.739C90.898,64.739 92.052,64.46 92.996,63.9C93.94,63.341 94.718,62.615 95.33,61.723C95.942,60.832 96.379,59.817 96.641,58.681C96.904,57.544 97.035,56.382 97.035,55.193ZM127.772,55.193C127.772,53.969 127.615,52.78 127.3,51.626C126.985,50.472 126.513,49.449 125.884,48.558C125.255,47.666 124.468,46.949 123.524,46.407C122.579,45.865 121.495,45.594 120.272,45.594C117.754,45.594 115.857,46.468 114.58,48.217C113.304,49.965 112.666,52.29 112.666,55.193C112.666,56.557 112.832,57.824 113.164,58.996C113.496,60.167 113.995,61.172 114.659,62.012C115.323,62.851 116.119,63.515 117.046,64.005C117.972,64.494 119.048,64.739 120.272,64.739C121.635,64.739 122.789,64.46 123.733,63.9C124.678,63.341 125.456,62.615 126.068,61.723C126.68,60.832 127.117,59.817 127.379,58.681C127.641,57.544 127.772,56.382 127.772,55.193ZM50.876,53.829L62.311,53.829L56.699,37.726L56.541,37.726L50.876,53.829ZM297.877,52.78C297.807,51.836 297.606,50.927 297.274,50.052C296.942,49.178 296.487,48.418 295.91,47.771C295.333,47.124 294.634,46.599 293.812,46.197C292.99,45.795 292.072,45.594 291.058,45.594C290.009,45.594 289.056,45.778 288.2,46.145C287.343,46.512 286.609,47.019 285.997,47.666C285.385,48.313 284.895,49.073 284.528,49.948C284.161,50.822 283.96,51.766 283.925,52.78L297.877,52.78ZM167.427,52.78C167.357,51.836 167.156,50.927 166.824,50.052C166.491,49.178 166.037,48.418 165.46,47.771C164.883,47.124 164.183,46.599 163.362,46.197C162.54,45.795 161.622,45.594 160.608,45.594C159.559,45.594 158.606,45.778 157.749,46.145C156.892,46.512 156.158,47.019 155.546,47.666C154.934,48.313 154.445,49.073 154.077,49.948C153.71,50.822 153.509,51.766 153.474,52.78L167.427,52.78ZM137.633,31.274L143.613,31.274L143.613,36.939L137.633,36.939L137.633,31.274Z" />
</svg>
